<?xml version="1.0" encoding="utf-8"?>
<!-- Generator: Adobe Illustrator 16.0.4, SVG Export Plug-In . SVG Version: 6.00 Build 0)  -->
<!DOCTYPE svg PUBLIC "-//W3C//DTD SVG 1.1//EN" "http://www.w3.org/Graphics/SVG/1.1/DTD/svg11.dtd">
<svg version="1.1" xmlns="http://www.w3.org/2000/svg" xmlns:xlink="http://www.w3.org/1999/xlink" x="0px" y="0px" width="132px"
	 height="315px" viewBox="0 0 264 630" enable-background="new 0 0 264 630" xml:space="preserve">
<g id="Layer_2" display="none">
	<rect x="-0.2" y="0.1" display="inline" fill="#B3DECF" width="132" height="315"/>
	<g display="inline">
		<path fill="#FFFFFF" d="M161.7,509.5c-6.9,0.7-12.9-2.4-13.3-7c-0.4-4.5,4.8-8.8,11.7-9.5c6.9-0.7,12.9,2.4,13.3,7
			C173.8,504.5,168.6,508.8,161.7,509.5 M175.5,494.4c-0.6-0.2-1-0.3-0.7-1.1c0.7-1.7,0.7-3.1,0-4.2c-1.4-1.9-5.1-1.8-9.3-0.1
			c0,0-1.3,0.6-1-0.5c0.7-2.1,0.6-3.9-0.5-4.9c-2.3-2.3-8.4,0.1-13.7,5.4c-3.9,3.9-6.2,8.1-6.2,11.7c0,6.9,8.9,11.1,17.5,11.1
			c11.4,0,18.9-6.6,18.9-11.8C180.6,496.9,177.9,495.1,175.5,494.4"/>
		<path fill="#FFFFFF" d="M183.1,481.7c-2.7-3-6.8-4.2-10.5-3.4h0c-0.9,0.2-1.4,1-1.2,1.9c0.2,0.9,1,1.4,1.9,1.2
			c2.7-0.6,5.5,0.3,7.5,2.4c1.9,2.2,2.5,5.1,1.6,7.7v0c-0.3,0.8,0.2,1.7,1,2c0.8,0.3,1.7-0.2,2-1c0,0,0,0,0,0
			C186.5,488.9,185.8,484.8,183.1,481.7"/>
		<path fill="#FFFFFF" d="M174.3,486.6c0.9-0.2,1.9,0.1,2.5,0.8c0.7,0.7,0.8,1.7,0.5,2.6"/>
		<path fill="#FFFFFF" d="M162,501.2c-0.2,0.4-0.8,0.6-1.2,0.4c-0.4-0.2-0.5-0.6-0.3-1c0.2-0.4,0.8-0.6,1.2-0.4
			C162.1,500.3,162.3,500.8,162,501.2 M159.8,504.1c-0.7,1.1-2.1,1.5-3.2,1c-1.1-0.5-1.4-1.7-0.7-2.8c0.7-1,2-1.5,3.1-1
			C160.1,501.7,160.5,503,159.8,504.1 M162.4,496.5c-3.3-0.9-7,0.8-8.4,3.7c-1.5,3,0,6.2,3.3,7.3c3.4,1.1,7.5-0.6,8.9-3.8
			C167.5,500.6,165.8,497.4,162.4,496.5"/>
	</g>
</g>
<g id="blank_copy" display="none">
	<path display="inline" d="M99,529c-17.7,0-32,14.3-32,32c0,17.7,14.3,32,32,32c17.7,0,32-14.3,32-32C131,543.3,116.7,529,99,529z"
		/>
	<path display="inline" d="M165,529c-17.7,0-32,14.3-32,32c0,17.7,14.3,32,32,32c17.7,0,32-14.3,32-32C197,543.3,182.7,529,165,529z
		"/>
	<path display="inline" fill="#4CB748" d="M231,529c-17.7,0-32,14.3-32,32c0,17.7,14.3,32,32,32c17.7,0,32-14.3,32-32
		C263,543.3,248.7,529,231,529z"/>
	<path display="inline" fill="#FFFFFF" d="M33,529c-17.7,0-32,14.3-32,32c0,17.7,14.3,32,32,32c17.7,0,32-14.3,32-32
		C65,543.3,50.7,529,33,529z"/>
</g>
<g id="Flickr">
	<path d="M165,529c-17.7,0-32,14.3-32,32c0,17.7,14.3,32,32,32c17.7,0,32-14.3,32-32C197,543.3,182.7,529,165,529z"/>
	<path fill="#4CB748" d="M231,529c-17.7,0-32,14.3-32,32c0,17.7,14.3,32,32,32c17.7,0,32-14.3,32-32C263,543.3,248.7,529,231,529z
		 M221.6,569.8c-4.3,0-7.8-3.5-7.8-7.8s3.5-7.8,7.8-7.8c4.3,0,7.8,3.5,7.8,7.8S225.9,569.8,221.6,569.8z M242.4,569.8
		c-4.3,0-7.8-3.5-7.8-7.8s3.5-7.8,7.8-7.8c4.3,0,7.8,3.5,7.8,7.8S246.7,569.8,242.4,569.8z"/>
	<g>
		<circle fill="#FFFFFF" cx="154.6" cy="562" r="7.8"/>
		<circle fill="#FFFFFF" cx="175.4" cy="562" r="7.8"/>
	</g>
	<path d="M99,529c-17.7,0-32,14.3-32,32c0,17.7,14.3,32,32,32c17.7,0,32-14.3,32-32C131,543.3,116.7,529,99,529z M89.6,569.8
		c-4.3,0-7.8-3.5-7.8-7.8s3.5-7.8,7.8-7.8c4.3,0,7.8,3.5,7.8,7.8S93.9,569.8,89.6,569.8z M110.4,569.8c-4.3,0-7.8-3.5-7.8-7.8
		s3.5-7.8,7.8-7.8c4.3,0,7.8,3.5,7.8,7.8S114.7,569.8,110.4,569.8z"/>
	<path fill="#FFFFFF" d="M33,529c-17.7,0-32,14.3-32,32c0,17.7,14.3,32,32,32c17.7,0,32-14.3,32-32C65,543.3,50.7,529,33,529z
		 M22.5,569.8c-4.3,0-7.8-3.5-7.8-7.8s3.5-7.8,7.8-7.8c4.3,0,7.8,3.5,7.8,7.8S26.9,569.8,22.5,569.8z M43.3,569.8
		c-4.3,0-7.8-3.5-7.8-7.8s3.5-7.8,7.8-7.8c4.3,0,7.8,3.5,7.8,7.8S47.6,569.8,43.3,569.8z"/>
</g>
<g id="sina_weibo">
	<path d="M165,463c-17.7,0-32,14.3-32,32c0,17.7,14.3,32,32,32c17.7,0,32-14.3,32-32C197,477.3,182.7,463,165,463z"/>
	<g>
		<path d="M94.1,501.3c-1.1-0.4-2.5,0-3.1,1c-0.7,1-0.4,2.3,0.7,2.8c1.1,0.5,2.5,0,3.2-1C95.5,503,95.1,501.7,94.1,501.3z"/>
		<path d="M95,493c-6.9,0.7-12.2,4.9-11.7,9.5c0.5,4.5,6.4,7.7,13.3,7c6.9-0.7,12.2-4.9,11.7-9.5C107.9,495.4,102,492.3,95,493z
			 M101.1,503.7c-1.4,3.2-5.5,4.9-8.9,3.8c-3.3-1.1-4.7-4.4-3.3-7.3c1.4-2.9,5.2-4.5,8.4-3.7C100.8,497.4,102.5,500.6,101.1,503.7z"
			/>
		<path d="M96.7,500.2c-0.4-0.2-0.9,0-1.2,0.4c-0.2,0.4-0.1,0.9,0.3,1c0.4,0.2,1,0,1.2-0.4C97.3,500.8,97.1,500.3,96.7,500.2z"/>
		<path d="M99,463c-17.7,0-32,14.3-32,32c0,17.7,14.3,32,32,32c17.7,0,32-14.3,32-32C131,477.3,116.7,463,99,463z M96.6,511.9
			c-8.7,0-17.5-4.2-17.5-11.1c0-3.6,2.3-7.8,6.2-11.7c5.3-5.3,11.4-7.7,13.7-5.4c1,1,1.1,2.8,0.5,4.9c-0.3,1.1,1,0.5,1,0.5
			c4.3-1.8,8-1.9,9.3,0.1c0.7,1,0.7,2.5,0,4.2c-0.3,0.8,0.1,0.9,0.7,1.1c2.4,0.7,5.1,2.5,5.1,5.7C115.6,505.3,108,511.9,96.6,511.9z
			 M109.3,486.6c0.9-0.2,1.9,0.1,2.5,0.8c0.7,0.7,0.8,1.7,0.5,2.6L109.3,486.6z M120.4,492.5C120.4,492.5,120.4,492.5,120.4,492.5
			c-0.3,0.8-1.2,1.3-2,1c-0.8-0.3-1.3-1.2-1-2v0c0.8-2.6,0.3-5.5-1.6-7.7c-2-2.2-4.8-3-7.5-2.4c-0.9,0.2-1.7-0.4-1.9-1.2
			c-0.2-0.9,0.4-1.7,1.2-1.9h0c3.7-0.8,7.8,0.4,10.5,3.4C120.8,484.8,121.5,488.9,120.4,492.5z"/>
	</g>
	<g>
		<path fill="#4CB748" d="M228.7,500.2c-0.4-0.2-0.9,0-1.2,0.4c-0.2,0.4-0.1,0.9,0.3,1c0.4,0.2,1,0,1.2-0.4
			C229.3,500.8,229.1,500.3,228.7,500.2z"/>
		<path fill="#4CB748" d="M227,493c-6.9,0.7-12.2,4.9-11.7,9.5c0.5,4.5,6.4,7.7,13.3,7c6.9-0.7,12.2-4.9,11.7-9.5
			C239.9,495.4,234,492.3,227,493z M233.1,503.7c-1.4,3.2-5.5,4.9-8.9,3.8c-3.3-1.1-4.7-4.4-3.3-7.3c1.4-2.9,5.2-4.5,8.4-3.7
			C232.8,497.4,234.5,500.6,233.1,503.7z"/>
		<path fill="#4CB748" d="M226.1,501.3c-1.1-0.4-2.5,0-3.1,1c-0.7,1-0.4,2.3,0.7,2.8c1.1,0.5,2.5,0,3.2-1
			C227.5,503,227.1,501.7,226.1,501.3z"/>
		<path fill="#4CB748" d="M231,463c-17.7,0-32,14.3-32,32c0,17.7,14.3,32,32,32c17.7,0,32-14.3,32-32C263,477.3,248.7,463,231,463z
			 M228.6,511.9c-8.7,0-17.5-4.2-17.5-11.1c0-3.6,2.3-7.8,6.2-11.7c5.3-5.3,11.4-7.7,13.7-5.4c1,1,1.1,2.8,0.5,4.9
			c-0.3,1.1,1,0.5,1,0.5c4.3-1.8,8-1.9,9.3,0.1c0.7,1,0.7,2.5,0,4.2c-0.3,0.8,0.1,0.9,0.7,1.1c2.4,0.7,5.1,2.5,5.1,5.7
			C247.6,505.3,240,511.9,228.6,511.9z M241.3,486.6c0.9-0.2,1.9,0.1,2.5,0.8c0.7,0.7,0.8,1.7,0.5,2.6L241.3,486.6z M252.4,492.5
			C252.4,492.5,252.4,492.5,252.4,492.5c-0.3,0.8-1.2,1.3-2,1c-0.8-0.3-1.3-1.2-1-2v0c0.8-2.6,0.3-5.5-1.6-7.7c-2-2.2-4.8-3-7.5-2.4
			c-0.9,0.2-1.7-0.4-1.9-1.2c-0.2-0.9,0.4-1.7,1.2-1.9h0c3.7-0.8,7.8,0.4,10.5,3.4C252.8,484.8,253.5,488.9,252.4,492.5z"/>
	</g>
	<g>
		<path fill="#FFFFFF" d="M28.1,493c-6.9,0.7-12.2,4.9-11.7,9.5c0.5,4.5,6.4,7.7,13.3,7c6.9-0.7,12.2-4.9,11.7-9.5
			C41,495.4,35,492.3,28.1,493z M34.1,503.7c-1.4,3.2-5.5,4.9-8.9,3.8c-3.3-1.1-4.7-4.4-3.3-7.3c1.4-2.9,5.2-4.5,8.4-3.7
			C33.8,497.4,35.5,500.6,34.1,503.7z"/>
		<path fill="#FFFFFF" d="M29.7,500.2c-0.4-0.2-0.9,0-1.2,0.4c-0.2,0.4-0.1,0.9,0.3,1c0.4,0.2,1,0,1.2-0.4
			C30.3,500.8,30.2,500.3,29.7,500.2z"/>
		<path fill="#FFFFFF" d="M27.1,501.3c-1.1-0.4-2.5,0-3.1,1c-0.7,1-0.4,2.3,0.7,2.8c1.1,0.5,2.5,0,3.2-1
			C28.5,503,28.2,501.7,27.1,501.3z"/>
		<path fill="#FFFFFF" d="M33,463c-17.7,0-32,14.3-32,32c0,17.7,14.3,32,32,32c17.7,0,32-14.3,32-32C65,477.3,50.7,463,33,463z
			 M29.7,511.9c-8.7,0-17.5-4.2-17.5-11.1c0-3.6,2.3-7.8,6.2-11.7c5.3-5.3,11.4-7.7,13.7-5.4c1,1,1.1,2.8,0.5,4.9
			c-0.3,1.1,1,0.5,1,0.5c4.3-1.8,8-1.9,9.3,0.1c0.7,1,0.7,2.5,0,4.2c-0.3,0.8,0.1,0.9,0.7,1.1c2.4,0.7,5.1,2.5,5.1,5.7
			C48.6,505.3,41,511.9,29.7,511.9z M42.3,486.6c0.9-0.2,1.9,0.1,2.5,0.8c0.7,0.7,0.8,1.7,0.5,2.6L42.3,486.6z M53.4,492.5
			C53.4,492.5,53.4,492.5,53.4,492.5c-0.3,0.8-1.2,1.3-2,1c-0.8-0.3-1.3-1.2-1-2v0c0.8-2.6,0.3-5.5-1.6-7.7c-2-2.2-4.8-3-7.5-2.4
			c-0.9,0.2-1.7-0.4-1.9-1.2c-0.2-0.9,0.4-1.7,1.2-1.9h0c3.7-0.8,7.8,0.4,10.5,3.4C53.8,484.8,54.6,488.9,53.4,492.5z"/>
	</g>
	<g>
		<path fill="#FFFFFF" d="M161.7,509.5c-6.9,0.7-12.9-2.4-13.3-7c-0.4-4.5,4.8-8.8,11.7-9.5c6.9-0.7,12.9,2.4,13.3,7
			C173.8,504.5,168.6,508.8,161.7,509.5 M175.5,494.4c-0.6-0.2-1-0.3-0.7-1.1c0.7-1.7,0.7-3.1,0-4.2c-1.4-1.9-5.1-1.8-9.3-0.1
			c0,0-1.3,0.6-1-0.5c0.7-2.1,0.6-3.9-0.5-4.9c-2.3-2.3-8.4,0.1-13.7,5.4c-3.9,3.9-6.2,8.1-6.2,11.7c0,6.9,8.9,11.1,17.5,11.1
			c11.4,0,18.9-6.6,18.9-11.8C180.6,496.9,177.9,495.1,175.5,494.4"/>
		<path fill="#FFFFFF" d="M183.1,481.7c-2.7-3-6.8-4.2-10.5-3.4h0c-0.9,0.2-1.4,1-1.2,1.9c0.2,0.9,1,1.4,1.9,1.2
			c2.7-0.6,5.5,0.3,7.5,2.4c1.9,2.2,2.5,5.1,1.6,7.7v0c-0.3,0.8,0.2,1.7,1,2c0.8,0.3,1.7-0.2,2-1c0,0,0,0,0,0
			C186.5,488.9,185.8,484.8,183.1,481.7"/>
		<path fill="#FFFFFF" d="M174.3,486.6c0.9-0.2,1.9,0.1,2.5,0.8c0.7,0.7,0.8,1.7,0.5,2.6"/>
		<path fill="#FFFFFF" d="M162,501.2c-0.2,0.4-0.8,0.6-1.2,0.4c-0.4-0.2-0.5-0.6-0.3-1c0.2-0.4,0.8-0.6,1.2-0.4
			C162.1,500.3,162.3,500.8,162,501.2 M159.8,504.1c-0.7,1.1-2.1,1.5-3.2,1c-1.1-0.5-1.4-1.7-0.7-2.8c0.7-1,2-1.5,3.1-1
			C160.1,501.7,160.5,503,159.8,504.1 M162.4,496.5c-3.3-0.9-7,0.8-8.4,3.7c-1.5,3,0,6.2,3.3,7.3c3.4,1.1,7.5-0.6,8.9-3.8
			C167.5,500.6,165.8,497.4,162.4,496.5"/>
	</g>
</g>
<g id="Youku">
	<path d="M165,397c-17.7,0-32,14.3-32,32c0,17.7,14.3,32,32,32c17.7,0,32-14.3,32-32C197,411.3,182.7,397,165,397z"/>
	<path d="M99,397c-17.7,0-32,14.3-32,32c0,17.7,14.3,32,32,32c17.7,0,32-14.3,32-32C131,411.3,116.7,397,99,397z M98.6,425.2
		c-2,4.5-3.7,8.4-5.7,12.8c-1,2.2-1.7,4.5-3.5,5.7c-7.3,0.5-1.9-7.6-0.8-10.4c-1.7-3.1-3.8-6.8-5.8-10.2c-0.9-1.6-3.1-4.5-0.9-6.2
		c0.8-0.6,2.6-0.6,3.5,0c2.6,2,4,7.4,6.2,9.8c0.8-1.3,1.5-3.2,2.3-5c0.7-1.7,1.3-4,2.4-4.8c1.7-1.2,4.3-0.2,4.6,1.5
		C101.5,420.5,99.5,423.3,98.6,425.2z M115.6,436.3c-1.4-0.3-2.6-2.2-3.9-3.3c-1.3-1.2-2.8-2.3-3.9-3.3c-0.7-1.1-0.5,0.7-0.5,1.8
		c0,1.2,0,2.6,0,3.1c-0.1,1.1-0.7,1.7-1.8,1.9c-0.5,0-1,0-1.5,0c-1.1-0.1-1.6-0.9-1.8-1.9c0-4.8,0-9.5,0-14.3c0-2.7,5.1-2.7,5.2,0
		c0,1.7,0,3.3,0,5c0.8-0.4,1.3-1.2,1.9-1.8c0.5-0.4,1-0.9,1.4-1.4c0.9-0.8,1.7-1.6,2.4-2.4c1-2.1,5-2,5.3,0.6c0.4,3.6-4.5,4.9-5.4,7
		c1.3,1.8,4.5,3.1,5.5,5.2C119.6,434.2,118.4,436.9,115.6,436.3z"/>
	<g>
		<path fill="#FFFFFF" d="M183.6,432.3c1,1.9-0.2,4.6-3,4c-1.4-0.3-2.6-2.2-3.9-3.3c-1.3-1.2-2.8-2.3-3.9-3.3
			c-0.7-1.1-0.5,0.7-0.5,1.8c0,1.2,0,2.6,0,3.1c-0.1,1.1-0.7,1.7-1.8,1.9c-0.5,0-1,0-1.5,0c-1.1-0.1-1.6-0.9-1.8-1.9
			c0-4.8,0-9.5,0-14.3c0-2.7,5.1-2.7,5.2,0c0,1.7,0,3.3,0,5c0.8-0.4,1.3-1.2,1.9-1.8c0.5-0.4,1-0.9,1.4-1.4c0.9-0.8,1.7-1.6,2.4-2.4
			c1-2.1,5-2,5.3,0.6c0.4,3.6-4.5,4.9-5.4,7C179.4,429,182.5,430.3,183.6,432.3z"/>
		<path fill="#FFFFFF" d="M166.1,418.4c0.4,2.1-1.6,4.9-2.4,6.8c-2,4.5-3.7,8.4-5.7,12.8c-1,2.2-1.7,4.5-3.5,5.7
			c-7.3,0.5-1.9-7.6-0.8-10.4c-1.7-3.1-3.8-6.8-5.8-10.2c-0.9-1.6-3.1-4.5-0.9-6.2c0.8-0.6,2.6-0.6,3.5,0c2.6,2,4,7.4,6.2,9.8
			c0.8-1.3,1.5-3.2,2.3-5c0.7-1.7,1.3-4,2.4-4.8C163.1,415.7,165.7,416.7,166.1,418.4z"/>
	</g>
	<path fill="#4CB748" d="M231,397c-17.7,0-32,14.3-32,32c0,17.7,14.3,32,32,32c17.7,0,32-14.3,32-32C263,411.3,248.7,397,231,397z
		 M230.6,425.2c-2,4.5-3.7,8.4-5.7,12.8c-1,2.2-1.7,4.5-3.5,5.7c-7.3,0.5-1.9-7.6-0.8-10.4c-1.7-3.1-3.8-6.8-5.8-10.2
		c-0.9-1.6-3.1-4.5-0.9-6.2c0.8-0.6,2.6-0.6,3.5,0c2.6,2,4,7.4,6.2,9.8c0.8-1.3,1.5-3.2,2.3-5c0.7-1.7,1.3-4,2.4-4.8
		c1.7-1.2,4.3-0.2,4.6,1.5C233.5,420.5,231.5,423.3,230.6,425.2z M247.6,436.3c-1.4-0.3-2.6-2.2-3.9-3.3c-1.3-1.2-2.8-2.3-3.9-3.3
		c-0.7-1.1-0.5,0.7-0.5,1.8c0,1.2,0,2.6,0,3.1c-0.1,1.1-0.7,1.7-1.8,1.9c-0.5,0-1,0-1.5,0c-1.1-0.1-1.6-0.9-1.8-1.9
		c0-4.8,0-9.5,0-14.3c0-2.7,5.1-2.7,5.2,0c0,1.7,0,3.3,0,5c0.8-0.4,1.3-1.2,1.9-1.8c0.5-0.4,1-0.9,1.4-1.4c0.9-0.8,1.7-1.6,2.4-2.4
		c1-2.1,5-2,5.3,0.6c0.4,3.6-4.5,4.9-5.4,7c1.3,1.8,4.5,3.1,5.5,5.2C251.6,434.2,250.4,436.9,247.6,436.3z"/>
	<path fill="#FFFFFF" d="M33,397c-17.7,0-32,14.3-32,32c0,17.7,14.3,32,32,32c17.7,0,32-14.3,32-32C65,411.3,50.7,397,33,397z
		 M31.5,425.2c-2,4.5-3.7,8.4-5.7,12.8c-1,2.2-1.7,4.5-3.5,5.7c-7.3,0.5-1.9-7.6-0.8-10.4c-1.7-3.1-3.8-6.8-5.8-10.2
		c-0.9-1.6-3.1-4.5-0.9-6.2c0.8-0.6,2.6-0.6,3.5,0c2.6,2,4,7.4,6.2,9.8c0.8-1.3,1.5-3.2,2.3-5c0.7-1.7,1.3-4,2.4-4.8
		c1.7-1.2,4.3-0.2,4.6,1.5C34.4,420.5,32.4,423.3,31.5,425.2z M48.5,436.3c-1.4-0.3-2.6-2.2-3.9-3.3c-1.3-1.2-2.8-2.3-3.9-3.3
		c-0.7-1.1-0.5,0.7-0.5,1.8c0,1.2,0,2.6,0,3.1c-0.1,1.1-0.7,1.7-1.8,1.9c-0.5,0-1,0-1.5,0c-1.1-0.1-1.6-0.9-1.8-1.9
		c0-4.8,0-9.5,0-14.3c0-2.7,5.1-2.7,5.2,0c0,1.7,0,3.3,0,5c0.8-0.4,1.3-1.2,1.9-1.8c0.5-0.4,1-0.9,1.4-1.4c0.9-0.8,1.7-1.6,2.4-2.4
		c1-2.1,5-2,5.3,0.6c0.4,3.6-4.5,4.9-5.4,7c1.3,1.8,4.5,3.1,5.5,5.2C52.5,434.2,51.3,436.9,48.5,436.3z"/>
</g>
<g id="Instagram">
	<path d="M165,331c-17.7,0-32,14.3-32,32c0,17.7,14.3,32,32,32c17.7,0,32-14.3,32-32C197,345.3,182.7,331,165,331z"/>
	<g>
		<path d="M107,356.2h5.4c0.7,0,1.3-0.6,1.3-1.3v-5.4c0-0.7-0.6-1.3-1.3-1.3H107c-0.7,0-1.3,0.6-1.3,1.3v5.4
			C105.7,355.6,106.3,356.2,107,356.2z"/>
		<path d="M99,331c-17.7,0-32,14.3-32,32c0,17.7,14.3,32,32,32c17.7,0,32-14.3,32-32C131,345.3,116.7,331,99,331z M117.6,373.8
			c0,3.1-2.5,5.7-5.7,5.7H88.1c-3.1,0-5.7-2.5-5.7-5.7V350c0-3.1,2.5-5.7,5.7-5.7h23.8c3.1,0,5.7,2.5,5.7,5.7V373.8z"/>
		<path d="M100,369.4c4,0,7.1-3.2,7.1-7.1c0-4-3.2-7.1-7.1-7.1c-4,0-7.2,3.2-7.2,7.1C92.8,366.3,96,369.4,100,369.4z"/>
		<path d="M110.2,362.3c0,5.6-4.6,10.2-10.2,10.2c-5.6,0-10.2-4.6-10.2-10.2c0-1,0.1-1.9,0.4-2.8h-4.9v13.8c0,2.1,1.7,3.8,3.8,3.8
			h21.7c2.1,0,3.8-1.7,3.8-3.8v-13.8h-4.9C110,360.4,110.2,361.4,110.2,362.3z"/>
	</g>
	<path id="rect4122_1_" fill="#FFFFFF" d="M153.1,344.3c-3.1,0-5.7,2.5-5.7,5.7v23.8c0,3.1,2.5,5.7,5.7,5.7H177
		c3.1,0,5.7-2.5,5.7-5.7V350c0-3.1-2.5-5.7-5.7-5.7H153.1z M172,348.2h5.4c0.7,0,1.3,0.6,1.3,1.3v5.4c0,0.7-0.6,1.3-1.3,1.3H172
		c-0.7,0-1.3-0.6-1.3-1.3v-5.4C170.8,348.8,171.3,348.2,172,348.2z M165.1,355.2c4,0,7.1,3.2,7.1,7.1c0,4-3.2,7.1-7.1,7.1
		s-7.2-3.2-7.2-7.1C157.9,358.4,161.1,355.2,165.1,355.2z M150.4,359.5h4.9c-0.3,0.9-0.4,1.8-0.4,2.8c0,5.6,4.6,10.2,10.2,10.2
		c5.6,0,10.2-4.6,10.2-10.2c0-1-0.2-1.9-0.4-2.8h4.9v13.8c0,2.1-1.7,3.8-3.8,3.8h-21.7c-2.1,0-3.8-1.7-3.8-3.8V359.5z"/>
	<g>
		<path fill="#FFFFFF" d="M43.1,362.3c0,5.6-4.6,10.2-10.2,10.2c-5.6,0-10.2-4.6-10.2-10.2c0-1,0.1-1.9,0.4-2.8h-4.9v13.8
			c0,2.1,1.7,3.8,3.8,3.8h21.7c2.1,0,3.8-1.7,3.8-3.8v-13.8h-4.9C42.9,360.4,43.1,361.4,43.1,362.3z"/>
		<path fill="#FFFFFF" d="M39.9,356.2h5.4c0.7,0,1.3-0.6,1.3-1.3v-5.4c0-0.7-0.6-1.3-1.3-1.3h-5.4c-0.7,0-1.3,0.6-1.3,1.3v5.4
			C38.6,355.6,39.2,356.2,39.9,356.2z"/>
		<path fill="#FFFFFF" d="M32.9,369.4c4,0,7.1-3.2,7.1-7.1c0-4-3.2-7.1-7.1-7.1c-4,0-7.2,3.2-7.2,7.1
			C25.8,366.3,29,369.4,32.9,369.4z"/>
		<path fill="#FFFFFF" d="M33,331c-17.7,0-32,14.3-32,32c0,17.7,14.3,32,32,32c17.7,0,32-14.3,32-32C65,345.3,50.7,331,33,331z
			 M50.5,373.8c0,3.1-2.5,5.7-5.7,5.7H21c-3.1,0-5.7-2.5-5.7-5.7V350c0-3.1,2.5-5.7,5.7-5.7h23.8c3.1,0,5.7,2.5,5.7,5.7V373.8z"/>
	</g>
	<g>
		<path fill="#4CB748" d="M231,369.4c4,0,7.1-3.2,7.1-7.1c0-4-3.2-7.1-7.1-7.1s-7.2,3.2-7.2,7.1C223.8,366.3,227,369.4,231,369.4z"
			/>
		<path fill="#4CB748" d="M241.2,362.3c0,5.6-4.6,10.2-10.2,10.2s-10.2-4.6-10.2-10.2c0-1,0.1-1.9,0.4-2.8h-4.9v13.8
			c0,2.1,1.7,3.8,3.8,3.8h21.7c2.1,0,3.8-1.7,3.8-3.8v-13.8h-4.9C241,360.4,241.2,361.4,241.2,362.3z"/>
		<path fill="#4CB748" d="M231,331c-17.7,0-32,14.3-32,32c0,17.7,14.3,32,32,32c17.7,0,32-14.3,32-32C263,345.3,248.7,331,231,331z
			 M248.6,373.8c0,3.1-2.5,5.7-5.7,5.7h-23.8c-3.1,0-5.7-2.5-5.7-5.7V350c0-3.1,2.5-5.7,5.7-5.7h23.8c3.1,0,5.7,2.5,5.7,5.7V373.8z"
			/>
		<path fill="#4CB748" d="M238,356.2h5.4c0.7,0,1.3-0.6,1.3-1.3v-5.4c0-0.7-0.6-1.3-1.3-1.3H238c-0.7,0-1.3,0.6-1.3,1.3v5.4
			C236.7,355.6,237.3,356.2,238,356.2z"/>
	</g>
</g>
<g id="Vimeo">
	<path fill="#FFFFFF" d="M33.1,199c-17.7,0-32,14.3-32,32c0,17.7,14.3,32,32,32s32-14.3,32-32C65.1,213.3,50.8,199,33.1,199z
		 M51.8,224.1c-0.2,3.7-2.8,8.8-7.8,15.3c-5.2,6.8-9.6,10.2-13.2,10.2c-2.2,0-4.1-2.1-5.7-6.2c-1-3.8-2.1-7.6-3.1-11.3
		c-1.1-4.1-2.4-6.2-3.7-6.2c-0.3,0-1.3,0.6-3,1.8l-1.8-2.3c1.9-1.7,3.8-3.3,5.6-5c2.5-2.2,4.4-3.3,5.7-3.4c3-0.3,4.8,1.8,5.5,6.1
		c0.7,4.7,1.3,7.6,1.5,8.8c0.9,3.9,1.8,5.9,2.8,5.9c0.8,0,2-1.3,3.6-3.8c1.6-2.5,2.5-4.5,2.6-5.8c0.2-2.2-0.6-3.3-2.6-3.3
		c-0.9,0-1.9,0.2-2.8,0.6c1.9-6.2,5.5-9.2,10.8-9C50.1,216.6,52,219.1,51.8,224.1z"/>
	<g id="Layer_6">
		<rect x="142.5" y="213.3" fill="#FFFFFF" width="45" height="37.5"/>
	</g>
	<path fill="#010101" d="M99,199c-17.7,0-32,14.3-32,32c0,17.7,14.3,32,32,32s32-14.3,32-32C131,213.3,116.7,199,99,199z
		 M117.7,224.1c-0.2,3.7-2.8,8.8-7.8,15.3c-5.2,6.8-9.6,10.2-13.2,10.2c-2.2,0-4.1-2.1-5.7-6.2c-1-3.8-2.1-7.6-3.1-11.3
		c-1.1-4.1-2.4-6.2-3.7-6.2c-0.3,0-1.3,0.6-3,1.8l-1.8-2.3c1.9-1.7,3.8-3.3,5.6-5c2.5-2.2,4.4-3.3,5.7-3.4c3-0.3,4.8,1.8,5.5,6.1
		c0.7,4.7,1.3,7.6,1.5,8.8c0.9,3.9,1.8,5.9,2.8,5.9c0.8,0,2-1.3,3.6-3.8c1.6-2.5,2.5-4.5,2.6-5.8c0.2-2.2-0.6-3.3-2.6-3.3
		c-0.9,0-1.9,0.2-2.8,0.6c1.9-6.2,5.5-9.2,10.8-9C116,216.6,117.9,219.1,117.7,224.1z"/>
	<path fill="#4CB748" d="M231,199c-17.7,0-32,14.3-32,32c0,17.7,14.3,32,32,32s32-14.3,32-32C263,213.3,248.7,199,231,199z
		 M249.7,224.1c-0.2,3.7-2.8,8.8-7.8,15.3c-5.2,6.8-9.6,10.2-13.2,10.2c-2.2,0-4.1-2.1-5.7-6.2c-1-3.8-2.1-7.6-3.1-11.3
		c-1.1-4.1-2.4-6.2-3.7-6.2c-0.3,0-1.3,0.6-3,1.8l-1.8-2.3c1.9-1.7,3.8-3.3,5.6-5c2.5-2.2,4.4-3.3,5.7-3.4c3-0.3,4.8,1.8,5.5,6.1
		c0.7,4.7,1.3,7.6,1.5,8.8c0.9,3.9,1.8,5.9,2.8,5.9c0.8,0,2-1.3,3.6-3.8c1.6-2.5,2.5-4.5,2.6-5.8c0.2-2.2-0.6-3.3-2.6-3.3
		c-0.9,0-1.9,0.2-2.8,0.6c1.9-6.2,5.5-9.2,10.8-9C248,216.6,249.9,219.1,249.7,224.1z"/>
	<g>
		<path fill="#010101" d="M165,199c-17.7,0-32,14.3-32,32s14.3,32,32,32c17.7,0,32-14.3,32-32S182.7,199,165,199z M183.7,224.1
			c-0.2,3.7-2.8,8.8-7.8,15.3c-5.2,6.8-9.6,10.2-13.2,10.2c-2.2,0-4.1-2.1-5.7-6.2c-1-3.8-2.1-7.6-3.1-11.3
			c-1.1-4.1-2.4-6.2-3.7-6.2c-0.3,0-1.3,0.6-3,1.8l-1.8-2.3c1.9-1.7,3.8-3.3,5.6-5c2.5-2.2,4.4-3.3,5.7-3.4c3-0.3,4.8,1.8,5.5,6.1
			c0.7,4.7,1.3,7.6,1.5,8.8c0.9,3.9,1.8,5.9,2.8,5.9c0.8,0,2-1.3,3.6-3.8c1.6-2.5,2.5-4.5,2.6-5.8c0.2-2.2-0.6-3.3-2.6-3.3
			c-0.9,0-1.9,0.2-2.8,0.6c1.9-6.2,5.5-9.2,10.8-9C182.1,216.6,183.9,219.1,183.7,224.1z"/>
	</g>
</g>
<g id="Pinterest">
	<path fill="#010101" d="M165,265c-17.7,0-32,14.3-32,32c0,17.7,14.3,32,32,32s32-14.3,32-32C197,279.3,182.7,265,165,265z"/>
	<g id="Layer_9">
		<g>
			<path fill="#FFFFFF" d="M155,316.2c-0.1-1.8,0-3.9,0.4-5.8c0.5-2,3.2-13.7,3.2-13.7s-0.8-1.6-0.8-4c0-3.7,2.2-6.5,4.9-6.5
				c2.3,0,3.4,1.7,3.4,3.8c0,2.3-1.5,5.7-2.2,8.9c-0.6,2.7,1.3,4.8,4,4.8c4.8,0,8-6.1,8-13.4c0-5.5-3.7-9.6-10.5-9.6
				c-7.6,0-12.4,5.7-12.4,12.1c0,2.2,0.6,3.7,1.7,4.9c0.5,0.5,0.5,0.8,0.4,1.4c-0.1,0.5-0.4,1.6-0.5,2c-0.2,0.6-0.7,0.9-1.3,0.6
				c-3.5-1.4-5.2-5.3-5.2-9.6c0-7.2,6-15.7,18-15.7c9.6,0,15.9,7,15.9,14.4c0,9.9-5.5,17.3-13.6,17.3c-2.7,0-5.3-1.5-6.2-3.1
				c0,0-1.5,5.8-1.8,6.9c-0.5,1.9-1.6,3.9-2.5,5.4C157.2,317.7,155.7,317.4,155,316.2z"/>
		</g>
		<path fill="#4CB748" d="M231,265c-17.7,0-32,14.3-32,32c0,17.7,14.3,32,32,32c17.7,0,32-14.3,32-32C263,279.3,248.7,265,231,265z
			 M235.4,308.2c-2.7,0-5.3-1.5-6.2-3.1c0,0-1.5,5.8-1.8,6.9c-0.5,1.9-1.6,3.9-2.5,5.4c-0.7,0.4-2.2,0.1-3-1.1
			c-0.1-1.8,0-3.9,0.4-5.8c0.5-2,3.2-13.7,3.2-13.7s-0.8-1.6-0.8-4c0-3.7,2.2-6.5,4.9-6.5c2.3,0,3.4,1.7,3.4,3.8
			c0,2.3-1.5,5.7-2.2,8.9c-0.6,2.7,1.3,4.8,4,4.8c4.8,0,8-6.1,8-13.4c0-5.5-3.7-9.6-10.5-9.6c-7.6,0-12.4,5.7-12.4,12.1
			c0,2.2,0.6,3.7,1.7,4.9c0.5,0.5,0.5,0.8,0.4,1.4c-0.1,0.5-0.4,1.6-0.5,2c-0.2,0.6-0.7,0.9-1.3,0.6c-3.5-1.4-5.2-5.3-5.2-9.6
			c0-7.2,6-15.7,18-15.7c9.6,0,15.9,7,15.9,14.4C249,300.8,243.5,308.2,235.4,308.2z"/>
		<path fill="#FFFFFF" d="M33,265c-17.7,0-32,14.3-32,32c0,17.7,14.3,32,32,32s32-14.3,32-32C65,279.3,50.7,265,33,265z M36.3,308.2
			c-2.7,0-5.3-1.5-6.2-3.1c0,0-1.5,5.8-1.8,6.9c-0.5,1.9-1.6,3.9-2.5,5.4c-0.7,0.4-2.2,0.1-3-1.1c-0.1-1.8,0-3.9,0.4-5.8
			c0.5-2,3.2-13.7,3.2-13.7s-0.8-1.6-0.8-4c0-3.7,2.2-6.5,4.9-6.5c2.3,0,3.4,1.7,3.4,3.8c0,2.3-1.5,5.7-2.2,8.9
			c-0.6,2.7,1.3,4.8,4,4.8c4.8,0,8-6.1,8-13.4c0-5.5-3.7-9.6-10.5-9.6c-7.6,0-12.4,5.7-12.4,12.1c0,2.2,0.6,3.7,1.7,4.9
			c0.5,0.5,0.5,0.8,0.4,1.4c-0.1,0.5-0.4,1.6-0.5,2c-0.2,0.6-0.7,0.9-1.3,0.6c-3.5-1.4-5.2-5.3-5.2-9.6c0-7.2,6-15.7,18-15.7
			c9.6,0,15.9,7,15.9,14.4C49.9,300.8,44.4,308.2,36.3,308.2z"/>
		<path fill="#010101" d="M99,265c-17.7,0-32,14.3-32,32c0,17.7,14.3,32,32,32c17.7,0,32-14.3,32-32C131,279.3,116.7,265,99,265z
			 M103.4,308.2c-2.7,0-5.3-1.5-6.2-3.1c0,0-1.5,5.8-1.8,6.9c-0.5,1.9-1.6,3.9-2.5,5.4c-0.7,0.4-2.2,0.1-3-1.1
			c-0.1-1.8,0-3.9,0.4-5.8c0.5-2,3.2-13.7,3.2-13.7s-0.8-1.6-0.8-4c0-3.7,2.2-6.5,4.9-6.5c2.3,0,3.4,1.7,3.4,3.8
			c0,2.3-1.5,5.7-2.2,8.9c-0.6,2.7,1.3,4.8,4,4.8c4.8,0,8-6.1,8-13.4c0-5.5-3.7-9.6-10.5-9.6c-7.6,0-12.4,5.7-12.4,12.1
			c0,2.2,0.6,3.7,1.7,4.9c0.5,0.5,0.5,0.8,0.4,1.4c-0.1,0.5-0.4,1.6-0.5,2c-0.2,0.6-0.7,0.9-1.3,0.6c-3.5-1.4-5.2-5.3-5.2-9.6
			c0-7.2,6-15.7,18-15.7c9.6,0,15.9,7,15.9,14.4C117,300.8,111.5,308.2,103.4,308.2z"/>
	</g>
</g>
<g id="LinkedIn">
	<path fill="#FFFFFF" d="M33,133c-17.7,0-32,14.3-32,32c0,17.7,14.3,32,32,32c17.7,0,32-14.3,32-32C65,147.3,50.7,133,33,133z
		 M23.4,181.9h-7.6v-22.8h7.6V181.9z M19.6,156L19.6,156c-2.6,0-4.2-1.8-4.2-3.9c0-2.2,1.7-3.9,4.3-3.9c2.6,0,4.2,1.7,4.2,3.9
		C23.9,154.2,22.2,156,19.6,156z M50.7,181.9h-7.6v-12.2c0-3.1-1.1-5.2-3.8-5.2c-2.1,0-3.3,1.4-3.9,2.8c-0.2,0.5-0.2,1.2-0.2,1.9
		v12.7h-7.6c0,0,0.1-20.7,0-22.8h7.6v3.2c1-1.6,2.8-3.8,6.8-3.8c5,0,8.7,3.3,8.7,10.3V181.9z"/>
	<path fill="#010101" d="M99,133c-17.7,0-32,14.3-32,32c0,17.7,14.3,32,32,32c17.7,0,32-14.3,32-32C131,147.3,116.7,133,99,133z
		 M89.3,181.9h-7.6v-22.8h7.6V181.9z M85.5,156L85.5,156c-2.6,0-4.2-1.8-4.2-3.9c0-2.2,1.7-3.9,4.3-3.9c2.6,0,4.2,1.7,4.2,3.9
		C89.8,154.2,88.2,156,85.5,156z M116.7,181.9h-7.6v-12.2c0-3.1-1.1-5.2-3.8-5.2c-2.1,0-3.3,1.4-3.9,2.8c-0.2,0.5-0.2,1.2-0.2,1.9
		v12.7h-7.6c0,0,0.1-20.7,0-22.8h7.6v3.2c1-1.6,2.8-3.8,6.8-3.8c5,0,8.7,3.3,8.7,10.3V181.9z"/>
	<path fill="#010101" d="M165,133.3c-17.7,0-32,14.3-32,32c0,17.7,14.3,32,32,32c17.7,0,32-14.3,32-32
		C197,147.7,182.7,133.3,165,133.3z"/>
	<g>
		<path fill="#FFFFFF" d="M155.4,182.2v-22.8h-7.6v22.8H155.4L155.4,182.2z M151.6,156.3c2.6,0,4.3-1.8,4.3-3.9
			c0-2.2-1.6-3.9-4.2-3.9c-2.6,0-4.3,1.7-4.3,3.9C147.3,154.5,149,156.3,151.6,156.3L151.6,156.3L151.6,156.3z"/>
		<path fill="#FFFFFF" d="M159.6,182.2h7.6v-12.7c0-0.7,0-1.4,0.2-1.9c0.5-1.4,1.8-2.8,3.9-2.8c2.7,0,3.8,2.1,3.8,5.2v12.2h7.6
			v-13.1c0-7-3.7-10.3-8.7-10.3c-4.1,0-5.9,2.3-6.9,3.8h0.1v-3.3h-7.6C159.7,161.6,159.6,182.2,159.6,182.2L159.6,182.2z"/>
	</g>
	<path fill="#4CB748" d="M231,133c-17.7,0-32,14.3-32,32c0,17.7,14.3,32,32,32c17.7,0,32-14.3,32-32C263,147.3,248.7,133,231,133z
		 M221.3,181.9h-7.6v-22.8h7.6V181.9z M217.5,156L217.5,156c-2.6,0-4.2-1.8-4.2-3.9c0-2.2,1.7-3.9,4.3-3.9c2.6,0,4.2,1.7,4.2,3.9
		C221.8,154.2,220.2,156,217.5,156z M248.7,181.9h-7.6v-12.2c0-3.1-1.1-5.2-3.8-5.2c-2.1,0-3.3,1.4-3.9,2.8
		c-0.2,0.5-0.2,1.2-0.2,1.9v12.7h-7.6c0,0,0.1-20.7,0-22.8h7.6v3.2c1-1.6,2.8-3.8,6.8-3.8c5,0,8.7,3.3,8.7,10.3V181.9z"/>
</g>
<g id="Facebook">
	<path id="facebook-circle-icon" fill="#FFFFFF" d="M33,67C15.4,67,1,81.3,1,99s14.3,32,32,32c17.7,0,32-14.3,32-32S50.7,67,33,67z
		 M42.5,85.8c0,0-3.2,0-4.5,0c-1.6,0-1.9,0.6-1.9,2.3c0,1.4,0,3.9,0,3.9h6.4L41.9,99h-5.8v20.7h-8.3V99.1h-4.3v-7h4.3c0,0,0-1,0-5.5
		c0-5.2,2.8-7.9,8.9-7.9c1,0,5.7,0,5.7,0V85.8L42.5,85.8L42.5,85.8z"/>
	<path id="facebook-circle-icon_1_" fill="#010101" d="M99,67c-17.7,0-32,14.3-32,32s14.3,32,32,32c17.7,0,32-14.3,32-32
		S116.7,67,99,67z M108.5,85.8c0,0-3.2,0-4.5,0c-1.6,0-1.9,0.6-1.9,2.3c0,1.4,0,3.9,0,3.9h6.4l-0.6,6.9h-5.8v20.7h-8.3V99.1h-4.3v-7
		h4.3c0,0,0-1,0-5.5c0-5.2,2.8-7.9,8.9-7.9c1,0,5.7,0,5.7,0V85.8L108.5,85.8L108.5,85.8z"/>
	<g id="Layer_3">
		<rect x="152.1" y="76.3" fill="#FFFFFF" width="28.9" height="45.5"/>
	</g>
	<path id="facebook-circle-icon_2_" d="M165,67c-17.7,0-32,14.3-32,32c0,17.7,14.3,32,32,32c17.7,0,32-14.3,32-32
		C197,81.3,182.7,67,165,67z M174.5,85.8c0,0-3.2,0-4.5,0c-1.6,0-1.9,0.6-1.9,2.3c0,1.4,0,3.9,0,3.9h6.4l-0.6,6.9h-5.8v20.7h-8.3
		V99.1h-4.3v-7h4.3c0,0,0-1,0-5.5c0-5.2,2.8-7.9,8.9-7.9c1,0,5.7,0,5.7,0V85.8L174.5,85.8L174.5,85.8z"/>
	<path id="facebook-circle-icon_3_" fill="#4CB748" d="M231,67c-17.7,0-32,14.3-32,32c0,17.7,14.3,32,32,32c17.7,0,32-14.3,32-32
		C263,81.3,248.7,67,231,67z M240.5,85.8c0,0-3.2,0-4.5,0c-1.6,0-1.9,0.6-1.9,2.3c0,1.4,0,3.9,0,3.9h6.4l-0.6,6.9h-5.8v20.7h-8.3
		V99.1h-4.3v-7h4.3c0,0,0-1,0-5.5c0-5.2,2.8-7.9,8.9-7.9c1,0,5.7,0,5.7,0V85.8L240.5,85.8L240.5,85.8z"/>
</g>
<g id="Twitter">
	<path fill="#FFFFFF" d="M33,1C15.4,1,1,15.3,1,33c0,17.7,14.3,32,32,32c17.7,0,32-14.3,32-32C65,15.3,50.7,1,33,1z M47.9,25.3
		c0,0.3,0,0.7,0,1c0,10.2-7.8,22-22,22c-4.4,0-8.4-1.3-11.8-3.5c0.6,0.1,1.2,0.1,1.8,0.1c3.6,0,6.9-1.2,9.6-3.3
		c-3.4-0.1-6.2-2.3-7.2-5.4c0.5,0.1,1,0.1,1.5,0.1c0.7,0,1.4-0.1,2-0.3c-3.5-0.7-6.2-3.8-6.2-7.6c0,0,0-0.1,0-0.1
		c1,0.6,2.2,0.9,3.5,1C17,28,15.7,25.7,15.7,23c0-1.4,0.4-2.7,1-3.9c3.8,4.7,9.5,7.7,15.9,8.1c-0.1-0.6-0.2-1.2-0.2-1.8
		c0-4.3,3.5-7.7,7.7-7.7c2.2,0,4.2,0.9,5.6,2.4c1.8-0.3,3.4-1,4.9-1.9c-0.6,1.8-1.8,3.3-3.4,4.3c1.6-0.2,3.1-0.6,4.4-1.2
		C50.7,22.9,49.4,24.2,47.9,25.3z"/>
	<rect x="144.8" y="12.8" fill="#FFFFFF" width="40" height="37.9"/>
	<path d="M99,1C81.3,1,67,15.3,67,33c0,17.7,14.3,32,32,32c17.7,0,32-14.3,32-32C131,15.3,116.7,1,99,1z M115,25.3c0,0.3,0,0.7,0,1
		c0,10.2-7.8,22-22,22c-4.4,0-8.4-1.3-11.8-3.5c0.6,0.1,1.2,0.1,1.8,0.1c3.6,0,6.9-1.2,9.6-3.3c-3.4-0.1-6.2-2.3-7.2-5.4
		c0.5,0.1,1,0.1,1.5,0.1c0.7,0,1.4-0.1,2-0.3c-3.5-0.7-6.2-3.8-6.2-7.6c0,0,0-0.1,0-0.1c1,0.6,2.2,0.9,3.5,1
		c-2.1-1.4-3.4-3.7-3.4-6.4c0-1.4,0.4-2.7,1-3.9c3.8,4.7,9.5,7.7,15.9,8.1c-0.1-0.6-0.2-1.2-0.2-1.8c0-4.3,3.5-7.7,7.7-7.7
		c2.2,0,4.2,0.9,5.6,2.4c1.8-0.3,3.4-1,4.9-1.9c-0.6,1.8-1.8,3.3-3.4,4.3c1.6-0.2,3.1-0.6,4.4-1.2C117.8,22.9,116.5,24.2,115,25.3z"
		/>
	<path d="M165,1c-17.7,0-32,14.3-32,32c0,17.7,14.3,32,32,32c17.7,0,32-14.3,32-32C197,15.3,182.7,1,165,1z M180,25.3
		c0,0.3,0,0.7,0,1c0,10.2-7.8,22-22,22c-4.4,0-8.4-1.3-11.8-3.5c0.6,0.1,1.2,0.1,1.8,0.1c3.6,0,6.9-1.2,9.6-3.3
		c-3.4-0.1-6.2-2.3-7.2-5.4c0.5,0.1,1,0.1,1.5,0.1c0.7,0,1.4-0.1,2-0.3c-3.5-0.7-6.2-3.8-6.2-7.6c0,0,0-0.1,0-0.1
		c1,0.6,2.2,0.9,3.5,1c-2.1-1.4-3.4-3.7-3.4-6.4c0-1.4,0.4-2.7,1-3.9c3.8,4.7,9.5,7.7,15.9,8.1c-0.1-0.6-0.2-1.2-0.2-1.8
		c0-4.3,3.5-7.7,7.7-7.7c2.2,0,4.2,0.9,5.6,2.4c1.8-0.3,3.4-1,4.9-1.9c-0.6,1.8-1.8,3.3-3.4,4.3c1.6-0.2,3.1-0.6,4.4-1.2
		C182.8,22.9,181.5,24.2,180,25.3z"/>
	<path fill="#4CB748" d="M231,1c-17.7,0-32,14.3-32,32c0,17.7,14.3,32,32,32s32-14.3,32-32C263,15.3,248.7,1,231,1z M247,25.3
		c0,0.3,0,0.7,0,1c0,10.2-7.8,22-22,22c-4.4,0-8.4-1.3-11.8-3.5c0.6,0.1,1.2,0.1,1.8,0.1c3.6,0,6.9-1.2,9.6-3.3
		c-3.4-0.1-6.2-2.3-7.2-5.4c0.5,0.1,1,0.1,1.5,0.1c0.7,0,1.4-0.1,2-0.3c-3.5-0.7-6.2-3.8-6.2-7.6c0,0,0-0.1,0-0.1
		c1,0.6,2.2,0.9,3.5,1c-2.1-1.4-3.4-3.7-3.4-6.4c0-1.4,0.4-2.7,1-3.9c3.8,4.7,9.5,7.7,15.9,8.1c-0.1-0.6-0.2-1.2-0.2-1.8
		c0-4.3,3.5-7.7,7.7-7.7c2.2,0,4.2,0.9,5.6,2.4c1.8-0.3,3.4-1,4.9-1.9c-0.6,1.8-1.8,3.3-3.4,4.3c1.6-0.2,3.1-0.6,4.4-1.2
		C249.8,22.9,248.5,24.2,247,25.3z"/>
</g>
</svg>
